<svg width="24" height="24" viewBox="0 0 24 24" fill="none" xmlns="http://www.w3.org/2000/svg">
<path d="M18.375 0H5.625C2.5184 0 0 2.5184 0 5.625V18.375C0 21.4816 2.5184 24 5.625 24H18.375C21.4816 24 24 21.4816 24 18.375V5.625C24 2.5184 21.4816 0 18.375 0Z" fill="#330000"/>
<path d="M11.6 14.2812H7.87997L7.11994 16.6312C7.09997 16.7212 7.02 16.7812 6.93 16.7712H5.04994C4.93997 16.7712 4.90997 16.7112 4.93997 16.5912L8.16 7.32122C8.19 7.22128 8.22 7.11122 8.25994 6.99122C8.29997 6.78122 8.31994 6.56128 8.31994 6.34125C8.31 6.29128 8.34994 6.24122 8.4 6.23128H10.9899C11.07 6.23128 11.1099 6.26128 11.12 6.31125L14.7699 16.6113C14.7999 16.7213 14.7699 16.7712 14.67 16.7712H12.5799C12.51 16.7812 12.44 16.7313 12.42 16.6613L11.6 14.2812ZM8.46 12.2512H11C10.94 12.0412 10.86 11.7912 10.77 11.5312C10.68 11.2612 10.59 10.9713 10.5 10.6713C10.4 10.3612 10.31 10.0612 10.2099 9.75122C10.11 9.44128 10.02 9.15122 9.93994 8.86125C9.85997 8.58131 9.78994 8.32125 9.72 8.08125H9.69994C9.60994 8.51128 9.49997 8.94131 9.36 9.37125C9.21 9.85125 9.06 10.3512 8.89997 10.8513C8.77085 11.3233 8.62409 11.7903 8.46 12.2512ZM17 7.98122C16.67 7.99125 16.35 7.86122 16.11 7.63125C15.88 7.38122 15.76 7.05122 15.77 6.71128C15.76 6.37125 15.89 6.05128 16.13 5.82122C16.37 5.59116 16.69 5.47125 17.02 5.47125C17.41 5.47125 17.71 5.59125 17.93 5.82122C18.1516 6.06365 18.27 6.38295 18.26 6.71128C18.27 7.05122 18.15 7.38122 17.91 7.63125C17.68 7.87125 17.34 8.00128 17 7.98122ZM15.88 16.6613V8.96128C15.88 8.86125 15.92 8.82122 16.01 8.82122H17.99C18.08 8.82122 18.12 8.87128 18.12 8.96128V16.6613C18.12 16.7712 18.08 16.8213 17.99 16.8213H16.03C15.93 16.8213 15.88 16.7613 15.88 16.6613Z" fill="#FF9A00"/>
</svg>
