<svg width="24" height="24" viewBox="0 0 24 24" fill="none" xmlns="http://www.w3.org/2000/svg">
<path fill-rule="evenodd" clip-rule="evenodd" d="M4.36364 0C3.20633 0 2.09642 0.459739 1.27808 1.27808C0.459739 2.09642 0 3.20633 0 4.36364V19.6364C0 20.7937 0.459739 21.9036 1.27808 22.7219C2.09642 23.5403 3.20633 24 4.36364 24H19.6364C20.7937 24 21.9036 23.5403 22.7219 22.7219C23.5403 21.9036 24 20.7937 24 19.6364V4.36364C24 3.20633 23.5403 2.09642 22.7219 1.27808C21.9036 0.459739 20.7937 0 19.6364 0H4.36364ZM14.232 6.42109V7.90909H19.0658V6.42109H14.232ZM16.4629 9.02509C15.1735 9.02509 14.1393 9.53236 13.4324 10.3615C12.732 11.1829 12.372 12.2956 12.372 13.488C12.372 14.5702 12.8738 15.5913 13.6222 16.3353C14.3695 17.0815 15.3895 17.5789 16.4629 17.5789C17.5473 17.5789 18.6524 17.2593 19.5807 16.7116L18.4702 14.7753C17.8649 15.1434 17.1713 15.3409 16.4629 15.3469C15.7855 15.3469 15.1582 14.8702 14.8265 14.2309H20.1818V13.116C20.1818 11.0389 18.7724 9.02509 16.4629 9.02509ZM14.3825 12.372H18.2204C17.9945 11.5211 17.3956 10.884 16.4629 10.884C15.4396 10.884 14.6695 11.3989 14.3825 12.372ZM8.09455 6.79309H3.81818V17.2069H8.83855C9.49388 17.2067 10.133 17.0029 10.6674 16.6236C11.2018 16.2443 11.6052 15.7084 11.8216 15.0898C12.0381 14.4713 12.057 13.8007 11.8758 13.171C11.6945 12.5412 11.322 11.9833 10.8098 11.5745C11.0959 11.0947 11.2497 10.5475 11.2556 9.98889C11.2615 9.43024 11.1192 8.88 10.8433 8.39421C10.5673 7.90842 10.1676 7.50443 9.68477 7.22337C9.20193 6.94231 8.65323 6.79313 8.09455 6.79309ZM6.04909 15.3469V12.744H8.46655C8.63745 12.744 8.80669 12.7777 8.96459 12.8431C9.12249 12.9085 9.26596 13.0043 9.38681 13.1252C9.50766 13.246 9.60353 13.3895 9.66893 13.5474C9.73434 13.7053 9.768 13.8745 9.768 14.0455C9.768 14.2164 9.73434 14.3856 9.66893 14.5435C9.60353 14.7014 9.50766 14.8449 9.38681 14.9657C9.26596 15.0866 9.12249 15.1824 8.96459 15.2478C8.80669 15.3132 8.63745 15.3469 8.46655 15.3469H6.04909ZM7.72364 11.256C7.89455 11.256 8.06378 11.2223 8.22168 11.1569C8.37958 11.0915 8.52305 10.9957 8.6439 10.8748C8.76476 10.754 8.86062 10.6105 8.92602 10.4526C8.99143 10.2947 9.02509 10.1255 9.02509 9.95455C9.02509 9.78364 8.99143 9.6144 8.92602 9.4565C8.86062 9.2986 8.76476 9.15513 8.6439 9.03428C8.52305 8.91343 8.37958 8.81756 8.22168 8.75216C8.06378 8.68675 7.89455 8.65309 7.72364 8.65309H6.04909V11.256H7.72364Z" fill="black"/>
</svg>
