<svg width="24" height="24" viewBox="0 0 24 24" fill="none" xmlns="http://www.w3.org/2000/svg">
<path fill-rule="evenodd" clip-rule="evenodd" d="M4.36364 0C3.20633 0 2.09642 0.459739 1.27808 1.27808C0.459739 2.09642 0 3.20633 0 4.36364V19.6364C0 20.7937 0.459739 21.9036 1.27808 22.7219C2.09642 23.5403 3.20633 24 4.36364 24H19.6364C20.7937 24 21.9036 23.5403 22.7219 22.7219C23.5403 21.9036 24 20.7937 24 19.6364V4.36364C24 3.20633 23.5403 2.09642 22.7219 1.27808C21.9036 0.459739 20.7937 0 19.6364 0H4.36364ZM11.0836 4.36364C11.0302 4.36337 10.9773 4.37467 10.9286 4.39676C10.8799 4.41885 10.8365 4.45121 10.8015 4.49162C10.7665 4.53203 10.7406 4.57954 10.7257 4.63088C10.7107 4.68223 10.707 4.7362 10.7149 4.78909L10.7215 4.83709C10.8358 5.6344 11.2338 6.36378 11.8423 6.89153C12.4508 7.41928 13.2291 7.71005 14.0345 7.71055H16.2895V9.96546C16.2899 10.7709 16.5807 11.5492 17.1085 12.1577C17.6362 12.7662 18.3656 13.1642 19.1629 13.2785L19.212 13.2851C19.2647 13.2928 19.3185 13.289 19.3696 13.274C19.4207 13.2591 19.4681 13.2333 19.5083 13.1984C19.5486 13.1635 19.5809 13.1204 19.603 13.0719C19.6251 13.0234 19.6364 12.9707 19.6364 12.9175V5.47964C19.6364 4.86327 19.1367 4.36364 18.5204 4.36364H11.0836ZM7.08109 8.58327C7.11597 8.54282 7.15917 8.51037 7.20775 8.48815C7.25633 8.46593 7.30913 8.45447 7.36255 8.45455H14.4284C15.0447 8.45455 15.5444 8.95418 15.5444 9.57055V16.6364C15.5445 16.6897 15.5331 16.7425 15.5109 16.7911C15.4887 16.8397 15.4564 16.8829 15.416 16.9178C15.3756 16.9527 15.3281 16.9784 15.2769 16.9933C15.2256 17.0082 15.1717 17.0119 15.1189 17.004L15.0709 16.9975C14.2736 16.8831 13.5442 16.4851 13.0165 15.8767C12.4887 15.2682 12.1979 14.4898 12.1975 13.6844V11.8015H10.3145C9.50945 11.8004 8.73166 11.5094 8.12362 10.9817C7.51557 10.454 7.11798 9.72494 7.00364 8.928L6.99709 8.87891C6.98959 8.82626 6.9935 8.7726 7.00856 8.7216C7.02362 8.67059 7.04947 8.62341 7.08436 8.58327H7.08109ZM3.36218 12.6742C3.39706 12.6337 3.44026 12.6013 3.48884 12.5791C3.53742 12.5568 3.59022 12.5454 3.64364 12.5455H10.3375C10.9538 12.5455 11.4535 13.0451 11.4535 13.6615V20.3553C11.4537 20.4087 11.4424 20.4616 11.4203 20.5103C11.3982 20.559 11.3659 20.6024 11.3255 20.6374C11.2851 20.6724 11.2376 20.6983 11.1862 20.7133C11.1349 20.7282 11.0809 20.7319 11.028 20.724L10.98 20.7164C10.1827 20.602 9.45331 20.2041 8.92556 19.5956C8.39781 18.9871 8.10704 18.2087 8.10655 17.4033V15.8924H6.59673C5.79125 15.8919 5.01294 15.6011 4.40444 15.0733C3.79594 14.5456 3.39803 13.8162 3.28364 13.0189L3.276 12.9698C3.2685 12.9172 3.27241 12.8635 3.28747 12.8125C3.30253 12.7615 3.32838 12.7143 3.36327 12.6742H3.36218Z" fill="#2684FF"/>
</svg>
