<svg width="24" height="24" viewBox="0 0 24 24" fill="none" xmlns="http://www.w3.org/2000/svg">
<path d="M5.45456 21V11.7296L2.57878 9.09938L0 7.63979V19.364C0 20.2692 0.733594 21 1.63641 21H5.45456Z" fill="#4285F4"/>
<path d="M18.5454 21H22.3636C23.2691 21 24 20.2665 24 19.364V7.63989L21.0791 9.31167L18.5454 11.7296V21Z" fill="#34A853"/>
<path d="M5.45456 11.7296L5.06325 8.10739L5.45456 4.64057L12 9.54842L18.5454 4.64057L18.9832 7.92022L18.5454 11.7296L12 16.6374L5.45456 11.7296Z" fill="#EA4335"/>
<path d="M18.5454 4.64057V11.7296L24 7.63989V5.45852C24 3.43545 21.69 2.28216 20.0728 3.49543L18.5454 4.64057Z" fill="#FBBC04"/>
<path d="M0 7.63979L5.45456 11.7296V4.64057L3.92719 3.49545C2.30719 2.28208 0 3.43546 0 5.45844V7.63979Z" fill="#C5221F"/>
</svg>
