<svg width="24" height="24" viewBox="0 0 24 24" fill="none" xmlns="http://www.w3.org/2000/svg">
<path d="M18.375 0H5.625C2.5184 0 0 2.5184 0 5.625V18.375C0 21.4816 2.5184 24 5.625 24H18.375C21.4816 24 24 21.4816 24 18.375V5.625C24 2.5184 21.4816 0 18.375 0Z" fill="#001E36"/>
<path d="M5.4 16.6912V6.40125C5.4 6.33122 5.43 6.29128 5.50003 6.29128C5.67 6.29128 5.83003 6.29128 6.06 6.28125C6.3 6.27122 6.55003 6.27122 6.82003 6.26128C7.09003 6.25125 7.38 6.25125 7.69003 6.24122C7.99997 6.23128 8.29997 6.23128 8.59997 6.23128C9.42 6.23128 10.1 6.33122 10.66 6.54122C11.162 6.71173 11.6197 6.99185 12 7.36125C12.3222 7.6846 12.5711 8.07336 12.73 8.50125C12.88 8.92125 12.96 9.35128 12.96 9.80128C12.96 10.6613 12.76 11.3713 12.36 11.9313C11.96 12.4913 11.4 12.9113 10.75 13.1512C10.07 13.4013 9.31997 13.4913 8.50003 13.4913C8.26003 13.4913 8.1 13.4913 7.99997 13.4813C7.89994 13.4712 7.75997 13.4712 7.57003 13.4712V16.6812C7.57997 16.7512 7.53 16.8113 7.45997 16.8213H5.52C5.44003 16.8213 5.4 16.7812 5.4 16.6912ZM7.57997 8.22122V11.5812C7.72003 11.5912 7.84997 11.6013 7.96997 11.6013H8.50003C8.89003 11.6013 9.28003 11.5413 9.64997 11.4213C9.97003 11.3313 10.25 11.1412 10.47 10.8912C10.68 10.6413 10.78 10.3012 10.78 9.86128C10.7894 9.54877 10.7096 9.24004 10.55 8.97122C10.38 8.71125 10.14 8.51128 9.85003 8.40122C9.48 8.25122 9.07997 8.19122 8.67 8.20125C8.41003 8.20125 8.17997 8.20125 7.99003 8.21128C7.78997 8.20125 7.65 8.21128 7.57997 8.22122ZM19.2 10.9713C18.9 10.8112 18.58 10.7013 18.24 10.6313C17.87 10.5513 17.5 10.5012 17.12 10.5012C16.92 10.4913 16.71 10.5213 16.52 10.5712C16.39 10.6013 16.28 10.6713 16.21 10.7712C16.16 10.8513 16.13 10.9512 16.13 11.0412C16.13 11.1312 16.17 11.2212 16.23 11.3013C16.32 11.4113 16.44 11.5013 16.57 11.5713C16.8019 11.6913 17.0388 11.8014 17.28 11.9013C17.82 12.0813 18.34 12.3312 18.82 12.6312C19.15 12.8412 19.42 13.1213 19.61 13.4613C19.77 13.7813 19.85 14.1312 19.84 14.4912C19.85 14.9613 19.71 15.4312 19.45 15.8212C19.1711 16.2204 18.7819 16.5297 18.33 16.7112C17.84 16.9212 17.24 17.0313 16.52 17.0313C16.06 17.0313 15.61 16.9912 15.16 16.9012C14.8073 16.8403 14.4643 16.7327 14.14 16.5813C14.07 16.5413 14.02 16.4712 14.03 16.3913V14.6512C14.03 14.6213 14.04 14.5812 14.07 14.5613C14.1 14.5413 14.13 14.5512 14.16 14.5713C14.55 14.8013 14.96 14.9613 15.4 15.0612C15.78 15.1613 16.18 15.2112 16.58 15.2112C16.96 15.2112 17.23 15.1612 17.41 15.0712C17.57 15.0012 17.68 14.8313 17.68 14.6512C17.68 14.5113 17.6 14.3813 17.44 14.2512C17.28 14.1213 16.95 13.9713 16.46 13.7812C15.9573 13.6041 15.48 13.362 15.04 13.0613C14.7266 12.8379 14.467 12.5476 14.28 12.2112C14.12 11.8913 14.04 11.5413 14.05 11.1912C14.05 10.7613 14.17 10.3512 14.39 9.98128C14.64 9.58125 15.01 9.26128 15.44 9.06122C15.91 8.82122 16.5 8.71125 17.21 8.71125C17.62 8.71125 18.04 8.74125 18.45 8.80125C18.75 8.84128 19.04 8.92125 19.31 9.03122C19.35 9.04125 19.39 9.08128 19.41 9.12122C19.42 9.16125 19.43 9.20128 19.43 9.24122V10.8713C19.43 10.9113 19.41 10.9512 19.38 10.9713C19.29 10.9913 19.24 10.9913 19.2 10.9713Z" fill="#31A8FF"/>
</svg>
