<svg width="24" height="24" viewBox="0 0 24 24" fill="none" xmlns="http://www.w3.org/2000/svg">
<path d="M18.375 0H5.625C2.5184 0 0 2.5184 0 5.625V18.375C0 21.4816 2.5184 24 5.625 24H18.375C21.4816 24 24 21.4816 24 18.375V5.625C24 2.5184 21.4816 0 18.375 0Z" fill="#F4F2ED"/>
<path d="M20.2539 15.7326V7.00716L12.692 2.64441V5.99878L15.6586 7.70513C15.7749 7.76325 15.7749 7.93781 15.6586 7.99603L12.1297 10.0319C12.0326 10.0901 11.897 10.0901 11.8 10.0319L8.271 7.97662C8.15475 7.9185 8.15475 7.74394 8.271 7.68572L11.2377 5.97947V2.625L3.67566 6.98775V15.7326L6.58416 14.065V10.633C6.58416 10.5167 6.71981 10.4198 6.83616 10.4973L10.3651 12.5333C10.4621 12.5914 10.5397 12.7077 10.5397 12.8241V16.8959C10.5397 17.0123 10.4039 17.1092 10.2876 17.0317L7.32094 15.3254L4.41244 16.9928L11.9745 21.3556L19.5366 16.9928L16.6281 15.3254L13.6614 17.0317C13.5645 17.0899 13.4093 17.0123 13.4093 16.8959V12.8241C13.4093 12.7077 13.4676 12.5914 13.5838 12.5333L17.1128 10.4973C17.2098 10.4392 17.3648 10.5167 17.3648 10.633V14.065L20.2539 15.7326Z" fill="#4C4C4C"/>
<path d="M11.9551 21.375L19.5172 17.0123L16.6087 15.3448L13.642 17.0511C13.5451 17.1093 13.3899 17.0317 13.3899 16.9153V12.8435C13.3899 12.7271 13.4482 12.6108 13.5645 12.5527L17.0934 10.5167C17.1904 10.4586 17.3455 10.5361 17.3455 10.6524V14.0844L20.2539 15.752V7.00716L11.9551 11.7965V21.375Z" fill="black"/>
<path d="M12.6726 2.625V5.97937L15.6392 7.68572C15.7555 7.74384 15.7555 7.91841 15.6392 7.97662L12.1102 10.0125C12.0133 10.0707 11.8776 10.0707 11.7806 10.0125L8.271 7.97662C8.15475 7.9185 8.15475 7.74394 8.271 7.68572L11.2377 5.97947V2.625L3.67566 6.98775L11.9745 11.7771L20.2733 6.98775L12.6726 2.625Z" fill="#808080"/>
<path d="M10.2488 17.0317L7.28213 15.3254L4.37372 16.9929L11.9357 21.3556V11.7771L3.65625 7.00706V15.752L6.56475 14.0844V10.6524C6.56475 10.5361 6.7005 10.4392 6.81684 10.5167L10.3458 12.5527C10.4427 12.6108 10.5203 12.7271 10.5203 12.8435V16.9153C10.5008 17.0122 10.3652 17.0899 10.2488 17.0317Z" fill="#4C4C4C"/>
</svg>
