<svg width="24" height="24" viewBox="0 0 24 24" fill="none" xmlns="http://www.w3.org/2000/svg">
<path d="M23.988 5.45667C23.9768 4.94188 23.9356 4.42817 23.8644 3.9182C23.7784 3.46465 23.6319 3.0247 23.4288 2.61013C22.9848 1.7331 22.2727 1.02054 21.396 0.576029C20.984 0.374087 20.547 0.227992 20.0964 0.141607C19.5825 0.0691632 19.0648 0.0270881 18.546 0.0156008C18.3264 0.00720037 18.042 0.00360021 17.91 0.00360021L6.0924 0C5.9604 0 5.676 0.00360017 5.4564 0.0120006C4.94163 0.0231617 4.42795 0.0644342 3.918 0.135607C3.46448 0.221651 3.02455 0.368166 2.61 0.571229C1.73301 1.01522 1.02048 1.72736 0.576 2.60413C0.374068 3.01611 0.227981 3.45319 0.1416 3.9038C0.0687582 4.41767 0.0262845 4.9354 0.0144001 5.45427C0.0072001 5.67388 0.00240011 5.9583 0.00240011 6.0903L0 17.9085C0 18.0405 0.00359999 18.3249 0.012 18.5445C0.0231605 19.0593 0.064431 19.573 0.1356 20.083C0.22164 20.5365 0.368147 20.9765 0.5712 21.3911C1.01517 22.2681 1.72727 22.9807 2.604 23.4252C3.01596 23.6271 3.45301 23.7732 3.9036 23.8596C4.41747 23.932 4.93517 23.9741 5.454 23.9856C5.6736 23.994 5.958 23.9976 6.09 23.9976L17.9076 24C18.0396 24 18.324 23.9964 18.5436 23.988C19.0584 23.9768 19.5721 23.9356 20.082 23.8644C20.5355 23.7783 20.9754 23.6318 21.39 23.4288C22.2674 22.985 22.9804 22.2728 23.4252 21.3959C23.6271 20.9839 23.7732 20.5468 23.8596 20.0962C23.9324 19.5823 23.9749 19.0646 23.9868 18.5457C23.994 18.3261 23.9988 18.0417 23.9988 17.9097L24 6.0927C24 5.9607 23.9964 5.67628 23.988 5.45667ZM12.2604 20.3494H12.2568C10.8282 20.3505 9.42233 19.9923 8.1684 19.3078L3.6324 20.497L4.8468 16.0652C3.90654 14.4335 3.53085 12.5372 3.77796 10.6702C4.02507 8.80323 4.88119 7.06995 6.21357 5.73908C7.54595 4.40822 9.28016 3.55412 11.1473 3.30922C13.0145 3.06432 14.9103 3.44229 16.5408 4.38453C18.1713 5.32678 19.4454 6.78065 20.1656 8.52074C20.8858 10.2608 21.0118 12.1899 20.5241 14.0089C20.0364 15.8279 18.9622 17.4352 17.4681 18.5816C15.9741 19.7279 14.1436 20.3493 12.2604 20.3494Z" fill="url(#paint0_linear_58_465)"/>
<path d="M12.264 4.68143C10.9933 4.68106 9.74571 5.02114 8.65096 5.66631C7.55621 6.31147 6.65428 7.23816 6.03898 8.35001C5.42367 9.46185 5.11746 10.7182 5.15218 11.9885C5.1869 13.2588 5.56128 14.4966 6.2364 15.5732L6.4056 15.842L5.6868 18.4653L8.3784 17.7597L8.6376 17.9133C9.73289 18.5632 10.9832 18.9057 12.2568 18.9045H12.2604C14.1466 18.9049 15.9556 18.1559 17.2896 16.8223C18.6235 15.4887 19.3731 13.6799 19.3734 11.7936C19.3737 9.90733 18.6247 8.0982 17.2913 6.76418C15.9578 5.43017 14.149 4.68055 12.2628 4.68023L12.264 4.68143ZM16.4448 14.8459C16.2877 15.1059 16.0785 15.3305 15.8302 15.5054C15.5819 15.6804 15.3 15.8019 15.0024 15.8624C14.5532 15.9396 14.0921 15.9108 13.656 15.7784C13.2422 15.6501 12.8356 15.4995 12.438 15.3272C10.9617 14.5862 9.70332 13.4742 8.7864 12.1002C8.28603 11.4642 7.98239 10.6959 7.9128 9.8897C7.90726 9.55697 7.97096 9.22672 8.09987 8.91993C8.22878 8.61314 8.42007 8.33651 8.6616 8.1076C8.73326 8.02639 8.82082 7.96074 8.91886 7.91471C9.0169 7.86868 9.12334 7.84325 9.2316 7.83999C9.3732 7.83999 9.516 7.83999 9.6408 7.84719C9.7728 7.85319 9.948 7.79679 10.1208 8.21441C10.3008 8.64163 10.728 9.69408 10.7808 9.80089C10.8145 9.85696 10.8338 9.9205 10.8369 9.98583C10.84 10.0512 10.827 10.1163 10.7988 10.1753C10.7452 10.3038 10.6733 10.4239 10.5852 10.5317C10.4772 10.6565 10.3608 10.8101 10.2648 10.9061C10.1568 11.013 10.0464 11.1282 10.17 11.3418C10.4915 11.8911 10.8922 12.3901 11.3592 12.8226C11.8669 13.2728 12.4487 13.6317 13.0788 13.8835C13.2924 13.9915 13.4172 13.9723 13.542 13.8295C13.6668 13.6867 14.076 13.2055 14.2188 12.9918C14.3616 12.7782 14.5032 12.8142 14.6988 12.885C14.8944 12.9558 15.9468 13.4731 16.1604 13.5811C16.374 13.6891 16.5168 13.7407 16.5696 13.8295C16.6273 14.1732 16.5839 14.5264 16.4448 14.8459Z" fill="url(#paint1_linear_58_465)"/>
<defs>
<linearGradient id="paint0_linear_58_465" x1="12" y1="0" x2="12" y2="24" gradientUnits="userSpaceOnUse">
<stop stop-color="#5FD669"/>
<stop offset="1" stop-color="#309F3A"/>
</linearGradient>
<linearGradient id="paint1_linear_58_465" x1="12" y1="0" x2="12" y2="24" gradientUnits="userSpaceOnUse">
<stop stop-color="#5FD669"/>
<stop offset="1" stop-color="#309F3A"/>
</linearGradient>
</defs>
</svg>
